#!OML:ASF C:\ViconDB\ViconDB\414\Spring2016\041811\Spring2016.ASF
:FULLY-SPECIFIED
:DEGREES
217
root 5.12435 18.0805 -48.8328 -184.988 -3.0783 -179.11
lowerback 4.13283 0.289428 -2.14535
upperback -2.18336 0.226726 -0.216932
thorax -4.58326 0.166037 0.961581
lowerneck -11.3754 -4.61959 -12.9044
upperneck 24.5496 -9.75265 15.3082
head 11.1679 -4.78792 6.40497
rclavicle -1.59028e-015 -9.93923e-015
rhumerus -54.8873 2.84751 -98.6106
rradius 116.622
rwrist 10.9712
rhand -31.5108 -9.49026
rfingers 7.12502
rthumb -4.77638 -39.4164
lclavicle -1.59028e-015 -9.93923e-015
lhumerus -75.871 -12.4343 99.7439
lradius 94.7438
lwrist -5.27149
lhand -33.3292 11.0367
lfingers 7.12502
lthumb -6.53198 40.916
rfemur 6.9273 -17.5826 6.18229
rtibia 84.3214
rfoot -158.07 -12.3904
rtoes -12.4241
lfemur -22.892 2.67393 -22.6911
ltibia 41.1497
lfoot -10.6334 -4.5664
ltoes -1.32615
218
root 5.10491 18.0202 -49.256 -184.79 -3.71315 -180.576
lowerback 4.82426 0.0240246 -4.09269
upperback -2.45412 -0.308578 -0.373321
thorax -5.24135 -0.0315561 1.9388
lowerneck -11.4476 -4.55432 -13.2134
upperneck 25.0573 -9.6292 15.0587
head 11.3523 -4.79795 6.39971
rclavicle 1.49089e-015 -1.51076e-014
rhumerus -55.4992 -0.286422 -96.7837
rradius 112.47
rwrist 11.9831
rhand -31.303 -9.39635
rfingers 7.12502
rthumb -4.57573 -39.3269
lclavicle 1.49089e-015 -1.51076e-014
lhumerus -72.7999 -13.0765 100.149
lradius 92.3759
lwrist -7.34458
lhand -34.2519 10.862
lfingers 7.12502
lthumb -7.42273 40.7118
rfemur 3.94842 -18.432 3.96582
rtibia 87.7094
rfoot -158.206 -11.3593
rtoes -11.9841
lfemur -22.5232 1.95768 -24.407
ltibia 42.8575
lfoot -12.5265 -4.42202
ltoes -3.00063
219
root 5.10377 17.9495 -49.6536 -184.706 -3.8935 -181.725
lowerback 5.4751 -0.0181853 -5.10628
upperback -2.70873 -0.55532 -1.05475
thorax -5.87091 -0.12607 1.82612
lowerneck -11.1639 -4.4299 -12.9345
upperneck 25.4445 -9.81686 15.2738
head 11.4691 -4.90343 6.41908
rclavicle -2.33572e-015 5.96354e-015
rhumerus -56.174 -4.24618 -95.5196
rradius 108.011
rwrist 12.6176
rhand -30.6951 -8.72226
rfingers 7.12502
rthumb -3.98869 -38.6647
lclavicle -2.33572e-015 5.96354e-015
lhumerus -69.7989 -14.9681 99.8928
lradius 90.0521
lwrist -9.0362
lhand -38.3685 14.6464
lfingers 7.12502
lthumb -11.3946 44.3168
rfemur 0.648439 -18.7298 2.76127
rtibia 90.7563
rfoot -158.718 -10.1911
rtoes -11.72
lfemur -21.8411 1.88541 -25.5182
ltibia 44.1293
lfoot -14.1235 -4.89448
ltoes -3.94959
220
root 5.1093 17.8903 -50.0453 -184.816 -3.71739 -182.842
lowerback 6.26365 0.107402 -6.09455
upperback -2.93857 -0.608601 -1.58287
thorax -6.57088 -0.118147 1.83787
lowerneck -10.8149 -4.35399 -12.9329
upperneck 25.7548 -9.90576 15.2922
head 11.5299 -4.99598 6.42621
rclavicle 9.44227e-016 1.55052e-014
rhumerus -57.0921 -8.22491 -93.5774
rradius 103.713
rwrist 14.3211
rhand -29.0433 -9.61548
rfingers 7.12502
rthumb -2.39355 -39.5818
lclavicle 9.44227e-016 1.55052e-014
lhumerus -66.6409 -16.6606 99.7844
lradius 88.2522
lwrist -8.21927
lhand -38.3869 16.2674
lfingers 7.12502
lthumb -11.4124 45.9368
rfemur -2.50902 -18.6112 1.90628
rtibia 93.1076
rfoot -159.33 -8.84462
rtoes -11.5853
lfemur -20.6026 2.2813 -26.4872
ltibia 44.7859
lfoot -15.408 -5.54487
ltoes -4.39736
221
root 5.10331 17.8588 -50.4358 -184.958 -3.37642 -183.879
lowerback 6.94614 0.296562 -6.98295
upperback -3.06775 -0.577658 -2.04722
thorax -7.11458 -0.0741958 1.84549
lowerneck -10.4677 -4.29672 -13.0099
upperneck 25.8418 -9.98407 15.4604
head 11.5176 -5.06598 6.5011
rclavicle 5.96354e-016 -2.78299e-014
rhumerus -57.9806 -11.6138 -91.9762
rradius 99.0576
rwrist 12.2973
rhand -29.0889 -8.11086
rfingers 7.12502
rthumb -2.4376 -38.0767
lclavicle 5.96354e-016 -2.78299e-014
lhumerus -63.2403 -18.0736 99.6154
lradius 86.2751
lwrist -8.04873
lhand -37.9364 16.8206
lfingers 7.12502
lthumb -10.9779 46.5136
rfemur -5.6508 -18.2866 1.40683
rtibia 94.6968
rfoot -159.479 -7.51261
rtoes -12.1913
lfemur -19.0561 2.66835 -27.4415
ltibia 44.9555
lfoot -16.5536 -5.85097
ltoes -5.28493
222
root 5.09644 17.8529 -50.837 -185.223 -2.90015 -184.713
lowerback 4.6991 0.0899353 -7.07257
upperback -1.33457 -0.637713 -3.02438
thorax -4.00183 -0.26625 0.883596
lowerneck -11.6995 -4.09332 -11.5888
upperneck 25.1718 -9.5986 15.5057
head 11.3821 -4.63154 6.27893
rclavicle 5.06901e-015 -5.56597e-014
rhumerus -56.1816 -14.4314 -92.3008
rradius 94.544
rwrist 11.8141
rhand -30.4806 -8.64554
rfingers 7.12502
rthumb -3.78155 -38.5917
lclavicle 5.06901e-015 -5.56597e-014
lhumerus -57.3785 -19.0832 97.1879
lradius 84.9456
lwrist -8.6181
lhand -37.3452 16.5705
lfingers 7.12502
lthumb -10.4076 46.293
rfemur -8.47428 -17.7847 1.44642
rtibia 95.4497
rfoot -160.367 -6.25975
rtoes -11.7349
lfemur -17.1682 3.23796 -28.1504
ltibia 45.0865
lfoot -17.8958 -6.0767
ltoes -6.13773
223
root 5.08177 17.8328 -51.2175 -185.807 -3.02446 -185.458
lowerback 2.5954 -0.359844 -6.76788
upperback 0.729433 -1.02176 -4.2954
thorax -0.681711 -0.644538 -0.60023
lowerneck -13.1595 -3.80861 -9.91916
upperneck 24.4749 -9.29758 15.7878
head 11.311 -4.20419 6.08875
rclavicle 1.2424e-015 3.65764e-014
rhumerus -54.2504 -16.7679 -93.5412
rradius 90.671
rwrist 12.4994
rhand -31.1957 -8.50477
rfingers 7.12502
rthumb -4.47214 -38.4376
lclavicle 1.2424e-015 3.65764e-014
lhumerus -51.9881 -18.8757 93.8005
lradius 85.2222
lwrist -11.0586
lhand -36.2227 8.45585
lfingers 7.12502
lthumb -9.32464 38.2296
rfemur -10.7366 -17.653 1.44912
rtibia 95.6483
rfoot -161.336 -5.02311
rtoes -11.2748
lfemur -14.9359 3.03967 -28.9621
ltibia 45.1583
lfoot -18.9678 -5.95119
ltoes -6.63205
224
root 5.06683 17.7359 -51.5553 -186.595 -3.99651 -185.543
lowerback 6.56856 -0.508282 -7.63109
upperback -0.929404 -1.7437 -3.70822
thorax -4.57648 -0.829169 0.603864
lowerneck -11.7083 -1.91233 -8.98349
upperneck 25.4409 -6.55099 14.1644
head 10.8242 -3.10273 5.73232
rclavicle 9.54166e-015 8.11041e-014
rhumerus -58.8927 -18.0455 -90.209
rradius 88.7201
rwrist 13.6456
rhand -31.4966 -14.0133
rfingers 7.12502
rthumb -4.76262 -43.9397
lclavicle 9.54166e-015 8.11041e-014
lhumerus -52.8852 -17.4362 96.0686
lradius 86.3167
lwrist -11.0061
lhand -36.7308 5.89945
lfingers 7.12502
lthumb -9.81492 35.6507
rfemur -13.3307 -16.1047 4.27585
rtibia 95.6925
rfoot -163.863 -5.51705
rtoes -10.3768
lfemur -12.9674 1.6004 -29.3062
ltibia 45.4181
lfoot -19.9347 -5.5471
ltoes -6.99999
225
root 5.05892 17.7183 -51.921 -187.086 -5.07392 -185.452
lowerback 7.54306 -1.07453 -7.56383
upperback -0.750637 -2.59285 -3.7798
thorax -4.89132 -1.24572 0.603106
lowerneck -12.3649 -3.87795 -8.06432
upperneck 26.6455 -5.34632 12.7952
head 11.24 -1.01494 5.55685
rclavicle 3.62782e-014 3.33958e-014
rhumerus -60.3908 -18.6837 -89.2952
rradius 86.9462
rwrist 16.8404
rhand -30.8829 -9.59795
rfingers 7.12502
rthumb -4.17003 -39.5369
lclavicle 3.62782e-014 3.33958e-014
lhumerus -51.1844 -16.7007 96.3932
lradius 88.0536
lwrist -9.46783
lhand -37.1113 3.43705
lfingers 7.12502
lthumb -10.1821 33.1707
rfemur -15.6636 -15.3091 6.72787
rtibia 94.6783
rfoot -165.986 -5.97085
rtoes -9.72348
lfemur -10.8143 -0.0461071 -29.5052
ltibia 45.114
lfoot -20.4163 -5.06424
ltoes -7.59223
226
root 5.06834 17.7991 -52.3351 -186.707 -5.52123 -185.285
lowerback 7.62192 -1.5167 -7.60331
upperback -1.01444 -3.20222 -3.72624
thorax -5.17041 -1.52599 0.753892
lowerneck -12.4089 -3.35686 -7.47565
upperneck 26.8341 -4.55164 12.0262
head 11.1794 -0.688541 5.26735
rclavicle -1.23246e-014 -1.07344e-013
rhumerus -62.4836 -18.2335 -88.723
rradius 86.1829
rwrist 19.5028
rhand -30.7843 -8.13182
rfingers 7.12502
rthumb -4.07482 -38.0726
lclavicle -1.23246e-014 -1.07344e-013
lhumerus -49.9347 -15.9322 96.7451
lradius 90.4344
lwrist -9.13633
lhand -37.0514 2.82669
lfingers 7.12502
lthumb -10.1243 32.5631
rfemur -18.1335 -15.9738 8.16898
rtibia 92.499
rfoot -166.794 -5.31138
rtoes -9.85795
lfemur -9.21591 -1.03407 -29.3079
ltibia 44.4818
lfoot -20.7288 -4.90948
ltoes -8.88021
227
root 5.10321 17.9504 -52.8039 -185.64 -5.55472 -185.278
lowerback 6.48307 -1.97648 -8.41184
upperback -1.34244 -3.75734 -3.4618
thorax -4.76909 -1.77597 1.48664
lowerneck -12.7239 -3.69322 -8.22879
upperneck 27.1114 -5.01138 12.5473
head 11.4442 -0.901681 5.56217
rclavicle -1.78906e-014 0
rhumerus -64.3251 -16.5939 -89.0493
rradius 86.7302
rwrist 19.864
rhand -30.1313 -8.21845
rfingers 7.12502
rthumb -3.44421 -38.1704
lclavicle -1.78906e-014 0
lhumerus -48.8148 -15.3328 97.1578
lradius 92.957
lwrist -8.74556
lhand -37.1007 2.44555
lfingers 7.12502
lthumb -10.1717 32.1797
rfemur -20.5225 -17.3061 9.37126
rtibia 89.1531
rfoot -166.876 -4.60133
rtoes -8.19275
lfemur -7.8332 -1.088 -28.8482
ltibia 43.3156
lfoot -21.0927 -5.3181
ltoes -9.78889
228
root 5.13046 18.0363 -53.2592 -184.705 -5.23055 -185.355
lowerback 5.36854 -2.42401 -9.44358
upperback -1.6848 -4.2886 -3.03236
thorax -4.35239 -2.0066 2.48967
lowerneck -12.7817 -3.17775 -7.87296
upperneck 27.1781 -4.19452 11.7862
head 11.3451 -0.607295 5.31028
rclavicle 2.5842e-014 3.10104e-014
rhumerus -66.2346 -14.1449 -89.6733
rradius 87.4851
rwrist 20.0115
rhand -29.7978 -8.18141
rfingers 7.12502
rthumb -3.1222 -38.1383
lclavicle 2.5842e-014 3.10104e-014
lhumerus -47.8257 -14.7769 97.8393
lradius 95.7651
lwrist -7.79104
lhand -37.3228 2.72434
lfingers 7.12502
lthumb -10.386 32.4478
rfemur -23.0898 -17.3794 10.9801
rtibia 85.602
rfoot -167.224 -3.85871
rtoes -5.9095
lfemur -6.67738 -0.934026 -28.5249
ltibia 42.388
lfoot -20.9534 -5.53736
ltoes -11.1242
229
root 5.1225 18.1046 -53.6883 -184.766 -5.48208 -184.195
lowerback 5.44083 -3.05899 -8.83583
upperback -1.91572 -5.01037 -2.30461
thorax -4.53211 -2.32618 2.97398
lowerneck -12.5666 -2.53171 -7.52064
upperneck 27.1936 -3.13691 10.8479
head 11.1526 -0.226791 5.01879
rclavicle 1.58531e-014 2.94201e-014
rhumerus -66.2346 -14.1449 -89.6733
rradius 87.4851
rwrist 20.0115
rhand -29.7978 -8.18141
rfingers 7.12502
rthumb -3.1222 -38.1383
lclavicle 1.58531e-014 2.94201e-014
lhumerus -47.1356 -14.3618 98.9536
lradius 98.809
lwrist -7.3242
lhand -37.3265 3.61573
lfingers 7.12502
lthumb -10.3896 33.339
rfemur -24.0907 -16.6049 13.9585
rtibia 81.1166
rfoot -167.939 -3.81573
rtoes -13.2168
lfemur -4.85039 -2.15889 -27.4226
ltibia 41.9091
lfoot -20.7808 -4.83492
ltoes -12.6976
230
root 5.10669 18.1896 -54.1322 -184.488 -5.48206 -182.127
lowerback 2.96356 -2.43873 -5.66855
upperback -1.1751 -3.5972 -1.54408
thorax -2.63019 -1.73804 1.7582
lowerneck -12.0729 -3.38969 -10.5572
upperneck 26.062 -4.01817 11.8823
head 10.8217 -0.893399 5.76939
rclavicle 1.83876e-014 1.55052e-014
rhumerus -66.2346 -14.1449 -89.6733
rradius 87.4851
rwrist 20.0115
rhand -29.7978 -8.18141
rfingers 7.12502
rthumb -3.1222 -38.1383
lclavicle 1.83876e-014 1.55052e-014
lhumerus -46.0294 -18.0366 102.478
lradius 100.199
lwrist -16.735
lhand -38.4192 10.4262
lfingers 7.12502
lthumb -11.4435 40.0939
rfemur -25.2879 -15.5835 17.8671
rtibia 76.2742
rfoot -168.557 -3.84487
rtoes -9.47649
lfemur -3.64485 -3.15386 -25.3175
ltibia 41.7763
lfoot -20.3868 -4.22602
ltoes -14.8691
